<?xml version="1.0" encoding="UTF-8"?><svg id="Layer_2" xmlns="http://www.w3.org/2000/svg" viewBox="0 0 440.36 440.36"><g id="ICON"><path d="M220.18,333.97c-57.52,0-104.32-46.8-104.32-104.32v-87.55l103.97-45.23,104.32,45.24.34,87.55c0,57.51-46.8,104.31-104.32,104.31ZM135.71,155.11v74.54c0,46.58,37.89,84.47,84.47,84.47s84.46-37.88,84.47-84.44l-.29-74.54-84.51-36.65-84.14,36.61Z"/><polygon points="163.43 230.14 177.46 216.11 201.98 240.63 263.3 179.31 277.33 193.34 201.98 268.69 163.43 230.14"/><path d="M220.18,440.36c-58.81,0-114.1-22.9-155.69-64.49S0,278.99,0,220.18,22.9,106.08,64.49,64.49,161.37,0,220.18,0s114.1,22.9,155.69,64.49,64.49,96.88,64.49,155.69-22.9,114.1-64.49,155.69-96.88,64.49-155.69,64.49ZM220.18,18.88C109.18,18.88,18.88,109.18,18.88,220.18s90.3,201.3,201.3,201.3,201.3-90.3,201.3-201.3S331.17,18.88,220.18,18.88Z"/></g></svg>