<?xml version="1.0" encoding="UTF-8"?>
<svg id="Layer_2" xmlns="http://www.w3.org/2000/svg" version="1.1" viewBox="0 0 440.4 440.4">
  <!-- Generator: Adobe Illustrator 29.8.2, SVG Export Plug-In . SVG Version: 2.1.1 Build 3)  -->
  <defs>
    <style>
      .st0 {
        fill: #fff;
      }
    </style>
  </defs>
  <g id="ICON">
    <path class="st0" d="M220.2,334c-57.5,0-104.3-46.8-104.3-104.3v-87.6l104-45.2,104.3,45.2.3,87.6c0,57.5-46.8,104.3-104.3,104.3h0ZM135.7,155.1v74.5c0,46.6,37.9,84.5,84.5,84.5s84.5-37.9,84.5-84.4l-.3-74.5-84.5-36.7-84.1,36.6h0Z"/>
    <polygon class="st0" points="163.4 230.1 177.5 216.1 202 240.6 263.3 179.3 277.3 193.3 202 268.7 163.4 230.1"/>
    <path class="st0" d="M220.2,440.4c-58.8,0-114.1-22.9-155.7-64.5S0,279,0,220.2,22.9,106.1,64.5,64.5C106.1,22.9,161.4,0,220.2,0s114.1,22.9,155.7,64.5c41.6,41.6,64.5,96.9,64.5,155.7s-22.9,114.1-64.5,155.7-96.9,64.5-155.7,64.5ZM220.2,18.9C109.2,18.9,18.9,109.2,18.9,220.2s90.3,201.3,201.3,201.3,201.3-90.3,201.3-201.3S331.2,18.9,220.2,18.9Z"/>
  </g>
</svg>