<?xml version="1.0" encoding="UTF-8"?><svg id="Layer_2" xmlns="http://www.w3.org/2000/svg" viewBox="0 0 440.36 440.36"><g id="ICON"><path d="M291.29,322.15v-64.48h-142.39v64.48h-19.2V117.85h19.2v63.02h142.39v-63.02h19.37v204.31h-19.37ZM148.9,238.34h142.39v-38.14s-142.39,0-142.39,0v38.14Z"/><path d="M220.18,440.36c-58.81,0-114.1-22.9-155.69-64.49S0,278.99,0,220.18,22.9,106.08,64.49,64.49,161.37,0,220.18,0s114.1,22.9,155.69,64.49,64.49,96.88,64.49,155.69-22.9,114.1-64.49,155.69-96.88,64.49-155.69,64.49ZM220.18,18.88C109.18,18.88,18.88,109.18,18.88,220.18s90.3,201.3,201.3,201.3,201.3-90.3,201.3-201.3S331.17,18.88,220.18,18.88Z"/></g></svg>