<?xml version="1.0" encoding="UTF-8"?><svg id="Layer_2" xmlns="http://www.w3.org/2000/svg" viewBox="0 0 440.36 440.36"><g id="ICON"><polygon points="163.23 238.5 177.26 224.47 201.78 248.99 263.1 187.67 277.13 201.7 201.78 277.05 163.23 238.5"/><path d="M129.63,322.15l-.03-142.34,61.81-62.08h119.05v204.42h-180.83ZM148.85,302.79h142.39v-165.11h-71.19v62.67h-71.19v102.44ZM200.52,181.19v-43.62l-43.62,43.62h43.62Z"/><path d="M220.18,440.36c-58.81,0-114.1-22.9-155.69-64.49S0,278.99,0,220.18,22.9,106.08,64.49,64.49,161.37,0,220.18,0s114.1,22.9,155.69,64.49,64.49,96.88,64.49,155.69-22.9,114.1-64.49,155.69-96.88,64.49-155.69,64.49ZM220.18,18.88C109.18,18.88,18.88,109.18,18.88,220.18s90.3,201.3,201.3,201.3,201.3-90.3,201.3-201.3S331.17,18.88,220.18,18.88Z"/></g></svg>